<svg width="527" height="530" xmlns="http://www.w3.org/2000/svg" xmlns:xlink="http://www.w3.org/1999/xlink" xml:space="preserve" overflow="hidden"><g transform="translate(-555 -86)"><path d="M1040.26 599.162C1039.8 598.227 1039.23 597.332 1038.55 596.479 1037.87 595.62 1037.14 594.774 1036.36 593.932 1036.03 593.622 1035.67 593.561 1035.27 593.758 1035.22 593.783 1035.04 593.9 1034.73 594.105 1034.42 594.311 1034.1 594.544 1033.75 594.798 1033.34 595.092 1032.89 595.406 1032.41 595.749 1031.99 596.023 1031.83 596.394 1031.93 596.861 1032.04 597.474 1032.17 598.138 1032.32 598.859 1032.48 599.581 1032.65 600.322 1032.85 601.08 1033.05 601.841 1033.29 602.595 1033.56 603.348 1033.83 604.098 1034.12 604.803 1034.44 605.46 1034.69 605.963 1034.98 606.418 1035.32 606.829 1035.67 607.24 1036.04 607.566 1036.48 607.812 1036.9 608.054 1037.35 608.191 1037.82 608.223 1038.3 608.256 1038.8 608.138 1039.34 607.877 1040.13 607.49 1040.67 606.95 1041 606.253 1041.32 605.556 1041.47 604.798 1041.48 603.98 1041.48 603.159 1041.36 602.325 1041.13 601.475 1040.9 600.625 1040.6 599.854 1040.26 599.162ZM1050.37 589.649C1050.03 588.96 1049.63 588.292 1049.18 587.642 1048.74 586.994 1048.25 586.385 1047.74 585.826 1047.59 585.661 1047.45 585.543 1047.33 585.471 1047.21 585.402 1047.06 585.415 1046.88 585.508 1046.67 585.604 1046.35 585.809 1045.9 586.132 1045.44 586.454 1044.94 586.824 1044.37 587.244 1043.8 587.663 1043.23 588.102 1042.62 588.561 1042.02 589.021 1041.47 589.432 1041 589.802 1040.68 589.999 1040.49 590.185 1040.43 590.354 1040.36 590.528 1040.37 590.701 1040.46 590.874 1040.5 590.975 1040.59 591.1 1040.72 591.245 1040.84 591.386 1041.02 591.575 1041.24 591.809 1041.81 592.405 1042.44 593.026 1043.12 593.674 1043.78 594.319 1044.48 594.866 1045.21 595.318 1045.92 595.77 1046.66 596.071 1047.41 596.228 1048.16 596.381 1048.9 596.281 1049.63 595.923 1050.2 595.64 1050.62 595.282 1050.89 594.847 1051.16 594.411 1051.31 593.916 1051.35 593.359 1051.39 592.804 1051.31 592.216 1051.13 591.595 1050.96 590.975 1050.7 590.326 1050.37 589.649ZM1055.77 588.432C1056.53 589.972 1056.99 591.393 1057.16 592.695 1057.33 594.001 1057.28 595.161 1057.02 596.189 1056.75 597.211 1056.29 598.094 1055.64 598.832 1055 599.569 1054.25 600.153 1053.39 600.58 1052.52 601.007 1051.48 601.29 1050.27 601.426 1049.06 601.563 1047.76 601.422 1046.4 601.003 1046.22 600.958 1046.09 600.938 1045.99 600.943 1045.9 600.947 1045.81 600.967 1045.72 601.011 1045.57 601.088 1045.55 601.313 1045.67 601.684 1046.08 602.728 1046.32 603.82 1046.38 604.96 1046.45 606.096 1046.34 607.175 1046.07 608.199 1045.78 609.219 1045.33 610.153 1044.69 611.003 1044.06 611.853 1043.27 612.514 1042.32 612.985 1040.99 613.643 1039.7 613.961 1038.46 613.944 1037.21 613.924 1036.04 613.63 1034.93 613.054 1033.83 612.482 1032.82 611.656 1031.89 610.576 1030.95 609.5 1030.14 608.243 1029.43 606.809 1028.87 605.685 1028.41 604.508 1028.06 603.275 1027.69 602.046 1027.41 600.817 1027.19 599.593 1027.19 599.509 1027.15 599.396 1027.08 599.258 1026.94 598.965 1026.65 598.815 1026.22 598.812 1025.49 598.812 1024.82 598.618 1024.22 598.235 1023.63 597.852 1023.19 597.385 1022.92 596.833 1022.66 596.329 1022.61 595.81 1022.74 595.273 1022.88 594.734 1023.29 594.238 1023.99 593.783 1027.04 591.938 1030 590.024 1032.89 588.046 1035.79 586.067 1038.67 583.984 1041.52 581.801 1041.7 581.644 1041.84 581.494 1041.92 581.353 1042.02 581.212 1042.03 581.072 1041.96 580.934 1041.91 580.829 1041.85 580.717 1041.76 580.596 1041.68 580.475 1041.61 580.346 1041.54 580.209 1041.22 579.552 1041.13 578.96 1041.27 578.436 1041.43 577.909 1041.75 577.522 1042.25 577.276 1042.82 576.994 1043.49 576.958 1044.26 577.167 1045.03 577.38 1045.85 577.755 1046.71 578.299 1047.57 578.839 1048.44 579.516 1049.33 580.321 1050.23 581.128 1051.08 581.99 1051.89 582.912 1052.71 583.836 1053.45 584.774 1054.12 585.729 1054.8 586.688 1055.35 587.586 1055.77 588.432Z" fill="#FFFFFF" fill-rule="evenodd" transform="matrix(1 0 0 1.0016 -429.298 -181.002)"/><path d="M1063.16 624.452C1062.73 623.787 1062.2 623.167 1061.56 622.595 1060.92 622.023 1060.26 621.552 1059.57 621.188 1058.89 620.822 1058.25 620.584 1057.63 620.471 1057.03 620.358 1056.53 620.424 1056.16 620.661 1055.79 620.902 1055.74 621.249 1056.04 621.705 1056.21 621.978 1056.53 622.405 1056.99 622.978 1057.46 623.554 1057.96 624.186 1058.53 624.875 1059.1 625.564 1059.7 626.253 1060.29 626.942 1060.9 627.635 1061.43 628.232 1061.89 628.735 1062.1 628.949 1062.35 629.085 1062.65 629.142 1062.95 629.203 1063.25 629.142 1063.51 628.964 1063.76 628.807 1063.93 628.574 1064.02 628.26 1064.12 627.945 1064.15 627.579 1064.13 627.164 1064.1 626.745 1064.01 626.301 1063.84 625.834 1063.68 625.367 1063.45 624.904 1063.16 624.452ZM1067.88 621.942C1068.65 623.143 1069.19 624.38 1069.52 625.649 1069.84 626.918 1069.94 628.143 1069.82 629.316 1069.7 630.492 1069.38 631.568 1068.84 632.543 1068.29 633.521 1067.55 634.315 1066.59 634.932 1065.92 635.359 1065.24 635.62 1064.51 635.713 1063.8 635.806 1063.07 635.745 1062.35 635.524 1061.62 635.302 1060.91 634.928 1060.2 634.408 1059.5 633.884 1058.82 633.211 1058.18 632.385L1051.91 624.488C1051.71 624.162 1051.46 623.952 1051.16 623.852 1050.86 623.755 1050.59 623.791 1050.31 623.969 1049.89 624.239 1049.58 624.658 1049.4 625.225 1049.21 625.789 1049.13 626.434 1049.18 627.156 1049.21 627.873 1049.36 628.639 1049.63 629.44 1049.89 630.246 1050.26 631.011 1050.73 631.74 1051.18 632.442 1051.71 633.115 1052.32 633.763 1052.93 634.412 1053.6 635.016 1054.32 635.573 1055.05 636.129 1055.81 636.628 1056.61 637.075 1057.41 637.522 1058.24 637.898 1059.09 638.196 1059.8 638.405 1060.3 638.735 1060.59 639.191 1060.76 639.448 1060.85 639.726 1060.85 640.021 1060.85 640.315 1060.81 640.681 1060.7 641.117 1060.48 641.6 1060.29 641.97 1060.12 642.228 1059.95 642.482 1059.76 642.684 1059.52 642.829 1059.04 643.143 1058.42 643.196 1057.67 642.99 1056.52 642.627 1055.4 642.156 1054.3 641.576 1053.21 640.995 1052.17 640.322 1051.18 639.565 1050.19 638.804 1049.26 637.954 1048.4 637.019 1047.54 636.084 1046.77 635.097 1046.1 634.061 1045.25 632.744 1044.63 631.406 1044.22 630.04 1043.82 628.674 1043.63 627.345 1043.67 626.048 1043.71 624.75 1043.97 623.518 1044.44 622.345 1044.91 621.168 1045.61 620.104 1046.53 619.146 1046.88 618.71 1047.1 618.385 1047.16 618.175 1047.21 617.966 1047.16 617.724 1046.99 617.446 1046.6 616.845 1046.44 616.289 1046.53 615.778 1046.61 615.266 1046.93 614.831 1047.48 614.48 1047.71 614.331 1047.87 614.254 1047.95 614.247L1048.47 613.981C1049.1 613.69 1049.63 613.578 1050.04 613.646 1050.45 613.715 1050.82 614.001 1051.14 614.5L1051.38 614.867C1051.81 615.548 1052.43 615.826 1053.25 615.693 1054.69 615.48 1056.12 615.463 1057.55 615.648 1058.97 615.834 1060.32 616.205 1061.6 616.752 1062.89 617.305 1064.07 618.022 1065.14 618.896 1066.23 619.774 1067.13 620.789 1067.88 621.942Z" fill="#FFFFFF" fill-rule="evenodd" transform="matrix(1 0 0 1.0016 -429.298 -181.002)"/><path d="M1092.16 632.856C1092.46 633.232 1092.68 633.578 1092.83 633.893 1092.97 634.211 1093.03 634.536 1093 634.868 1092.97 635.201 1092.86 635.544 1092.66 635.891 1092.45 636.241 1092.16 636.632 1091.77 637.071 1090.51 638.376 1089.24 639.738 1087.92 641.152 1086.61 642.566 1085.3 644.001 1084 645.452 1083.39 646.084 1083.34 646.709 1083.83 647.325 1083.97 647.49 1084.21 647.748 1084.56 648.103 1084.9 648.453 1085.31 648.872 1085.79 649.356 1086.26 649.839 1086.78 650.359 1087.33 650.919 1087.88 651.479 1088.42 652.044 1088.97 652.608 1089.51 653.172 1090.02 653.715 1090.5 654.231 1090.98 654.751 1091.39 655.219 1091.73 655.637 1092 655.968 1092.14 656.281 1092.17 656.579 1092.21 656.878 1092.16 657.165 1092.05 657.442 1091.94 657.716 1091.77 657.974 1091.56 658.212 1091.34 658.449 1091.1 658.671 1090.84 658.877 1090.62 659.057 1090.35 659.203 1090.04 659.316 1089.74 659.424 1089.44 659.485 1089.13 659.493 1088.83 659.501 1088.54 659.449 1088.24 659.336 1087.95 659.223 1087.7 659.034 1087.48 658.764 1086.43 657.454 1085.33 656.173 1084.17 654.912 1083.02 653.647 1081.84 652.409 1080.64 651.201 1080.01 650.596 1079.4 650.532 1078.82 651.004 1078.77 651.04 1078.72 651.093 1078.66 651.16 1078.61 651.229 1078.56 651.286 1078.51 651.322 1077.35 652.555 1076.27 653.707 1075.25 654.786 1074.24 655.862 1073.33 656.818 1072.53 657.651 1071.73 658.481 1071.05 659.17 1070.52 659.719 1069.98 660.262 1069.61 660.613 1069.42 660.771 1068.88 661.205 1068.38 661.52 1067.93 661.713 1067.47 661.902 1067.03 661.971 1066.61 661.919 1066.18 661.866 1065.76 661.681 1065.35 661.362 1064.92 661.044 1064.47 660.585 1063.99 659.985 1063.53 659.412 1063.33 658.884 1063.38 658.397 1063.43 657.909 1063.72 657.426 1064.25 656.946 1065.95 655.428 1067.62 653.848 1069.25 652.209 1070.89 650.569 1072.5 648.901 1074.08 647.204 1074.62 646.547 1074.67 645.951 1074.23 645.411 1074.2 645.367 1074.15 645.319 1074.08 645.27 1074.02 645.222 1073.97 645.177 1073.94 645.133 1072.98 644.372 1072.06 643.662 1071.18 643.006 1070.31 642.349 1069.45 641.757 1068.64 641.233 1068.17 640.935 1067.79 640.649 1067.48 640.379 1067.17 640.105 1066.92 639.839 1066.71 639.585 1066.44 639.238 1066.38 638.861 1066.56 638.449 1066.73 638.034 1067.05 637.639 1067.52 637.265 1067.68 637.132 1067.89 636.994 1068.12 636.849 1068.37 636.701 1068.63 636.583 1068.92 636.491 1069.2 636.398 1069.5 636.354 1069.82 636.362 1070.13 636.366 1070.45 636.455 1070.79 636.628 1071.55 637.055 1072.5 637.679 1073.63 638.506 1074.75 639.336 1075.97 640.31 1077.27 641.438 1077.59 641.677 1077.9 641.813 1078.21 641.849 1078.52 641.882 1078.85 641.761 1079.2 641.479 1079.28 641.418 1079.35 641.358 1079.43 641.29 1079.51 641.225 1079.59 641.14 1079.66 641.036 1080.84 639.682 1081.92 638.441 1082.87 637.309 1083.83 636.177 1084.66 635.206 1085.34 634.396 1086.03 633.586 1086.56 632.945 1086.95 632.482 1087.35 632.019 1087.58 631.753 1087.65 631.693 1088.45 631.052 1089.19 630.826 1089.88 631.016 1090.57 631.209 1091.32 631.821 1092.16 632.856Z" fill="#FFFFFF" fill-rule="evenodd" transform="matrix(1 0 0 1.0016 -429.298 -181.002)"/><path d="M1108.68 652.276C1109.03 652.62 1109.28 652.941 1109.46 653.244 1109.63 653.542 1109.72 653.86 1109.73 654.195 1109.73 654.529 1109.66 654.88 1109.49 655.246 1109.33 655.613 1109.07 656.036 1108.73 656.512 1107.62 657.938 1106.49 659.424 1105.33 660.968 1104.17 662.511 1103.02 664.07 1101.86 665.649 1101.33 666.343 1101.34 666.971 1101.9 667.531 1102.05 667.68 1102.31 667.914 1102.7 668.228 1103.07 668.542 1103.52 668.917 1104.06 669.348 1104.58 669.779 1105.14 670.242 1105.74 670.742 1106.35 671.242 1106.95 671.745 1107.55 672.253 1108.15 672.76 1108.7 673.244 1109.24 673.711 1109.77 674.174 1110.23 674.602 1110.6 674.984 1110.91 675.282 1111.09 675.581 1111.14 675.875 1111.21 676.169 1111.2 676.459 1111.11 676.745 1111.03 677.031 1110.9 677.302 1110.69 677.56 1110.51 677.817 1110.3 678.063 1110.06 678.292 1109.86 678.498 1109.6 678.671 1109.31 678.812 1109.03 678.957 1108.72 679.046 1108.42 679.086 1108.13 679.127 1107.82 679.107 1107.52 679.022 1107.23 678.937 1106.95 678.776 1106.71 678.526 1105.52 677.338 1104.29 676.173 1103.02 675.037 1101.74 673.905 1100.44 672.793 1099.12 671.713 1098.43 671.177 1097.82 671.177 1097.29 671.705 1097.24 671.745 1097.2 671.806 1097.15 671.878 1097.1 671.955 1097.06 672.011 1097.02 672.051 1095.98 673.397 1095.03 674.659 1094.13 675.834 1093.23 677.011 1092.44 678.055 1091.72 678.965 1091.01 679.876 1090.41 680.634 1089.93 681.23 1089.45 681.83 1089.13 682.216 1088.95 682.394 1088.45 682.881 1087.99 683.244 1087.56 683.482 1087.13 683.72 1086.7 683.832 1086.27 683.824 1085.84 683.817 1085.4 683.676 1084.95 683.401 1084.5 683.127 1084.01 682.716 1083.47 682.169 1082.95 681.649 1082.7 681.145 1082.7 680.654 1082.7 680.162 1082.93 679.65 1083.41 679.122 1084.95 677.438 1086.45 675.694 1087.91 673.893 1089.36 672.092 1090.79 670.267 1092.19 668.417 1092.65 667.708 1092.64 667.107 1092.15 666.616 1092.11 666.576 1092.05 666.535 1091.99 666.491 1091.92 666.451 1091.87 666.411 1091.82 666.37 1090.79 665.714 1089.8 665.101 1088.87 664.542 1087.92 663.978 1087.03 663.478 1086.15 663.038 1085.66 662.789 1085.25 662.547 1084.92 662.309 1084.59 662.067 1084.3 661.83 1084.06 661.6 1083.76 661.286 1083.67 660.911 1083.8 660.484 1083.93 660.053 1084.2 659.63 1084.63 659.207 1084.78 659.057 1084.97 658.901 1085.19 658.732 1085.42 658.559 1085.67 658.414 1085.94 658.293 1086.22 658.172 1086.51 658.099 1086.82 658.071 1087.14 658.047 1087.47 658.099 1087.82 658.236 1088.63 658.582 1089.63 659.106 1090.83 659.811 1092.03 660.52 1093.34 661.367 1094.76 662.353 1095.1 662.559 1095.43 662.66 1095.75 662.663 1096.06 662.663 1096.37 662.507 1096.68 662.197 1096.76 662.128 1096.82 662.055 1096.9 661.983 1096.98 661.907 1097.04 661.813 1097.09 661.705 1098.14 660.239 1099.08 658.889 1099.91 657.668 1100.74 656.443 1101.46 655.391 1102.06 654.513 1102.65 653.638 1103.13 652.946 1103.47 652.443 1103.81 651.943 1104.02 651.657 1104.08 651.588 1104.81 650.867 1105.52 650.564 1106.22 650.685 1106.93 650.802 1107.74 651.334 1108.68 652.276Z" fill="#FFFFFF" fill-rule="evenodd" transform="matrix(1 0 0 1.0016 -429.298 -181.002)"/><path d="M1117.03 678.466C1118.36 679.582 1118.68 680.637 1118 681.625 1117.53 682.309 1116.99 683.075 1116.38 683.93 1115.78 684.78 1115.13 685.682 1114.45 686.628 1113.76 687.576 1113.04 688.546 1112.29 689.542 1111.55 690.537 1110.8 691.512 1110.07 692.47 1109.34 693.43 1108.63 694.349 1107.93 695.227 1107.25 696.109 1106.6 696.903 1106.01 697.608 1105.39 698.345 1104.65 698.68 1103.83 698.607 1102.99 698.535 1102.07 698.076 1101.07 697.229 1100.61 696.847 1100.34 696.436 1100.27 696.004 1100.19 695.573 1100.32 695.155 1100.67 694.739 1102.39 692.704 1103.95 690.758 1105.35 688.901 1106.75 687.044 1107.98 685.376 1109.04 683.896 1110.09 682.418 1110.96 681.177 1111.64 680.178 1112.32 679.174 1112.8 678.502 1113.09 678.164 1113.52 677.648 1114.11 677.415 1114.83 677.462 1115.56 677.511 1116.3 677.841 1117.03 678.466ZM1125.34 669.054C1125.73 669.376 1126.04 669.759 1126.28 670.194 1126.51 670.634 1126.66 671.085 1126.73 671.552 1126.81 672.015 1126.8 672.479 1126.69 672.93 1126.59 673.385 1126.39 673.78 1126.1 674.119 1125.57 674.755 1124.92 675.057 1124.15 675.025 1123.39 674.997 1122.6 674.646 1121.8 673.974 1121.38 673.615 1121.03 673.212 1120.76 672.769 1120.49 672.329 1120.31 671.878 1120.23 671.419 1120.15 670.959 1120.16 670.508 1120.26 670.061 1120.36 669.614 1120.56 669.207 1120.87 668.841 1121.39 668.22 1122.06 667.926 1122.88 667.962 1123.7 667.994 1124.52 668.357 1125.34 669.054Z" fill="#FFFFFF" fill-rule="evenodd" transform="matrix(1 0 0 1.0016 -429.298 -181.002)"/><path d="M1131.55 686.923C1131.8 687.088 1131.95 687.29 1132.04 687.531 1132.12 687.773 1132.09 688.115 1131.98 688.563 1131.86 689.006 1131.63 689.586 1131.29 690.303 1130.95 691.016 1130.49 691.926 1129.87 693.027 1129.72 693.389 1129.61 693.672 1129.56 693.877 1129.5 694.083 1129.51 694.216 1129.61 694.284 1129.75 694.381 1130.06 694.231 1130.55 693.837 1134.01 691.27 1136.83 690.738 1139.02 692.237 1140.05 692.934 1140.76 693.885 1141.15 695.094 1141.55 696.303 1141.63 697.874 1141.37 699.808 1141.11 701.746 1140.5 704.111 1139.56 706.903 1138.6 709.699 1137.27 713.039 1135.58 716.923 1135.49 717.117 1135.41 717.294 1135.33 717.447 1135.24 717.604 1135.15 717.745 1135.07 717.87 1134.82 718.237 1134.52 718.494 1134.17 718.644 1133.83 718.792 1133.47 718.857 1133.08 718.837 1132.7 718.821 1132.3 718.74 1131.91 718.599 1131.52 718.459 1131.16 718.277 1130.82 718.048 1130.15 717.592 1129.72 717.189 1129.52 716.846 1129.32 716.5 1129.32 716.102 1129.51 715.65 1130.71 712.914 1131.72 710.456 1132.57 708.281 1133.41 706.101 1134.06 704.227 1134.52 702.66 1134.97 701.089 1135.22 699.828 1135.26 698.877 1135.31 697.926 1135.12 697.31 1134.7 697.027 1134.29 696.746 1133.73 696.737 1133.02 697.012 1132.31 697.286 1131.41 697.857 1130.32 698.724 1129.24 699.594 1127.96 700.766 1126.51 702.245 1125.04 703.72 1123.36 705.529 1121.48 707.673 1120.96 708.257 1120.3 708.547 1119.48 708.55 1118.66 708.55 1117.82 708.257 1116.96 707.668 1116.39 707.277 1116.03 706.858 1115.89 706.415 1115.76 705.968 1115.81 705.529 1116.06 705.094 1118.18 701.685 1119.88 698.853 1121.19 696.596 1122.48 694.34 1123.5 692.515 1124.24 691.121 1124.98 689.727 1125.52 688.675 1125.86 687.975 1126.2 687.273 1126.48 686.77 1126.68 686.467 1126.84 686.23 1127.11 686.065 1127.48 685.976 1127.84 685.888 1128.25 685.863 1128.72 685.911 1129.17 685.955 1129.65 686.061 1130.16 686.23 1130.66 686.399 1131.13 686.633 1131.55 686.923Z" fill="#FFFFFF" fill-rule="evenodd" transform="matrix(1 0 0 1.0016 -429.298 -181.002)"/><path d="M1164.56 713.382C1163.9 713.06 1163.07 712.894 1162.07 712.882 1161.07 712.87 1160 712.974 1158.85 713.205 1157.7 713.43 1156.52 713.748 1155.33 714.167 1154.14 714.582 1153.02 715.065 1151.98 715.614 1150.95 716.161 1150.03 716.762 1149.25 717.407 1148.46 718.055 1147.91 718.712 1147.59 719.369 1147.3 719.961 1147.24 720.497 1147.41 720.984 1147.57 721.468 1147.93 721.846 1148.48 722.112 1149.91 722.802 1151.83 722.797 1154.24 722.105 1156.65 721.408 1159.43 719.957 1162.57 717.753 1163.17 717.314 1163.67 717.024 1164.06 716.878 1164.45 716.738 1164.9 716.738 1165.44 716.887 1165.84 717.02 1166.09 716.992 1166.19 716.799 1166.25 716.661 1166.27 716.488 1166.24 716.282 1166.13 715.67 1165.98 715.11 1165.77 714.594 1165.57 714.079 1165.17 713.676 1164.56 713.382ZM1167.79 709.159C1168.75 709.622 1169.6 710.215 1170.34 710.94 1171.08 711.661 1171.66 712.447 1172.08 713.297 1172.52 714.143 1172.75 715.03 1172.81 715.956 1172.86 716.883 1172.68 717.789 1172.25 718.671 1172.07 719.038 1171.82 719.349 1171.49 719.607 1171.17 719.868 1170.8 720.053 1170.4 720.171 1170 720.292 1169.59 720.336 1169.16 720.312 1168.73 720.287 1168.32 720.183 1167.95 719.997 1167.91 719.981 1167.88 719.969 1167.85 719.965 1167.82 719.961 1167.78 719.953 1167.75 719.937 1167.71 719.937 1167.67 719.929 1167.64 719.913L1166.73 722.044C1165.6 724.558 1165.07 726.544 1165.15 727.995 1165.23 729.445 1165.78 730.421 1166.81 730.916 1167.17 731.093 1167.52 731.214 1167.84 731.283 1168.15 731.351 1168.46 731.399 1168.76 731.428 1169.06 731.452 1169.34 731.488 1169.6 731.524 1169.86 731.565 1170.1 731.642 1170.32 731.75 1170.73 731.943 1170.99 732.286 1171.13 732.781 1171.26 733.273 1171.21 733.765 1170.97 734.253 1170.74 734.736 1170.32 735.13 1169.71 735.436 1169.1 735.743 1168.4 735.945 1167.61 736.041 1166.81 736.138 1165.97 736.122 1165.09 735.997 1164.21 735.867 1163.37 735.618 1162.59 735.239 1161.24 734.583 1160.33 733.45 1159.84 731.835 1159.36 730.219 1159.43 728.221 1160.04 725.844 1160.11 725.445 1160.05 725.207 1159.88 725.122 1159.67 725.021 1159.44 725.038 1159.18 725.171 1156.41 726.509 1153.8 727.25 1151.32 727.391 1148.85 727.536 1146.67 727.153 1144.78 726.234 1143.9 725.807 1143.16 725.292 1142.58 724.687 1141.99 724.083 1141.56 723.422 1141.31 722.705 1141.04 721.987 1140.94 721.222 1141 720.408 1141.07 719.59 1141.3 718.757 1141.71 717.906 1142.29 716.71 1143.17 715.582 1144.33 714.518 1145.5 713.454 1146.85 712.499 1148.37 711.653 1149.89 710.803 1151.53 710.086 1153.28 709.498 1155.04 708.909 1156.78 708.49 1158.52 708.24 1160.25 707.991 1161.93 707.93 1163.54 708.063 1165.14 708.2 1166.55 708.563 1167.79 709.159Z" fill="#FFFFFF" fill-rule="evenodd" transform="matrix(1 0 0 1.0016 -429.298 -181.002)"/><path d="M1220.1 720.981C1221.03 721.162 1221.98 721.524 1222.95 722.06 1223.94 722.596 1224.81 723.201 1225.6 723.878 1226.38 724.55 1226.99 725.247 1227.45 725.969 1227.91 726.686 1228.08 727.31 1227.98 727.838 1227.9 728.257 1227.73 728.588 1227.5 728.837 1227.27 729.083 1226.89 729.252 1226.38 729.337 1225.88 729.425 1225.2 729.45 1224.35 729.409 1223.51 729.369 1222.44 729.26 1221.16 729.087 1220.72 729.039 1220.37 729.103 1220.12 729.28 1219.86 729.458 1219.71 729.736 1219.63 730.11 1219.56 730.453 1219.53 731.053 1219.55 731.911 1219.57 732.77 1219.57 733.821 1219.55 735.062 1219.53 736.307 1219.46 737.717 1219.33 739.296 1219.21 740.872 1218.97 742.54 1218.63 744.301 1218.27 746.098 1217.7 747.677 1216.91 749.047 1216.12 750.412 1215.16 751.525 1214.02 752.383 1212.89 753.241 1211.62 753.818 1210.21 754.119 1208.79 754.417 1207.27 754.41 1205.67 754.091 1204.25 753.813 1202.92 753.334 1201.66 752.653 1200.41 751.976 1199.28 751.15 1198.25 750.183 1197.22 749.212 1196.32 748.112 1195.55 746.879 1194.78 745.646 1194.18 744.337 1193.72 742.951 1193.27 741.565 1192.98 740.123 1192.87 738.628 1192.77 737.133 1192.87 735.63 1193.16 734.115 1193.31 733.414 1193.63 732.874 1194.13 732.495 1194.64 732.113 1195.21 731.984 1195.85 732.113 1196.44 732.229 1196.99 732.403 1197.5 732.64 1198 732.878 1198.42 733.157 1198.76 733.479 1199.1 733.801 1199.35 734.147 1199.51 734.514 1199.68 734.881 1199.73 735.243 1199.65 735.602 1199.35 737.133 1199.34 738.656 1199.62 740.163 1199.9 741.674 1200.41 743.052 1201.15 744.296 1201.89 745.545 1202.82 746.601 1203.94 747.471 1205.06 748.342 1206.32 748.914 1207.69 749.188 1208.92 749.429 1209.97 749.16 1210.82 748.374 1211.67 747.589 1212.27 746.335 1212.61 744.615 1213.04 742.439 1213.32 740.094 1213.44 737.572 1213.56 735.049 1213.55 732.273 1213.41 729.236 1213.33 728.16 1212.86 727.507 1212.02 727.285 1209.78 726.721 1207.6 726.125 1205.51 725.497 1203.41 724.869 1201.39 724.196 1199.45 723.479 1199.08 723.366 1198.74 723.169 1198.44 722.894 1198.15 722.62 1197.9 722.29 1197.71 721.911 1197.52 721.528 1197.39 721.117 1197.32 720.682 1197.25 720.247 1197.26 719.812 1197.34 719.377 1197.45 718.829 1197.67 718.418 1198.01 718.152 1198.35 717.886 1198.73 717.794 1199.17 717.878 1199.41 717.927 1199.81 718.035 1200.34 718.201 1200.88 718.366 1201.51 718.563 1202.25 718.797 1202.98 719.031 1203.77 719.284 1204.63 719.562 1205.48 719.841 1206.37 720.11 1207.26 720.376 1208.17 720.642 1209.06 720.892 1209.93 721.125 1210.81 721.356 1211.64 721.548 1212.42 721.701 1212.85 721.79 1213.25 721.814 1213.63 721.778 1213.99 721.742 1214.39 721.649 1214.81 721.496 1215.57 721.158 1216.41 720.936 1217.31 720.844 1218.23 720.747 1219.16 720.795 1220.1 720.981Z" fill="#FFFFFF" fill-rule="evenodd" transform="matrix(1 0 0 1.0016 -429.298 -181.002)"/><path d="M1235.53 746.086C1236.02 746.109 1236.51 746.227 1236.97 746.436 1237.43 746.646 1237.83 746.912 1238.17 747.242 1238.51 747.569 1238.77 747.939 1238.97 748.354 1239.15 748.769 1239.24 749.2 1239.21 749.643 1239.17 750.489 1238.83 751.134 1238.2 751.573 1237.56 752.008 1236.73 752.202 1235.69 752.146 1235.13 752.117 1234.61 752 1234.13 751.803 1233.65 751.601 1233.24 751.343 1232.89 751.025 1232.54 750.707 1232.27 750.34 1232.09 749.925 1231.91 749.51 1231.83 749.071 1231.85 748.608 1231.9 747.801 1232.25 747.161 1232.93 746.698 1233.6 746.231 1234.46 746.025 1235.53 746.086Z" fill="#FFFFFF" fill-rule="evenodd" transform="matrix(1 0 0 1.0016 -429.298 -181.002)"/><path d="M1284.55 716.556C1285.04 716.464 1285.55 716.513 1286.07 716.701 1286.58 716.891 1286.99 717.322 1287.29 717.991 1287.63 718.691 1287.95 719.401 1288.22 720.126 1288.51 720.848 1288.77 721.553 1289.02 722.242 1289.26 722.93 1289.5 723.6 1289.73 724.244 1289.96 724.888 1290.18 725.485 1290.4 726.033 1290.6 726.464 1290.81 726.798 1291.04 727.028 1291.27 727.262 1291.52 727.423 1291.81 727.519 1292.08 727.612 1292.38 727.652 1292.68 727.637 1292.98 727.62 1293.3 727.58 1293.64 727.516 1294.02 727.447 1294.42 727.334 1294.84 727.177 1295.27 727.02 1295.69 726.903 1296.1 726.822 1296.37 726.775 1296.63 726.77 1296.91 726.807 1297.18 726.847 1297.44 726.955 1297.7 727.133 1297.94 727.314 1298.16 727.58 1298.36 727.935 1298.55 728.293 1298.7 728.765 1298.81 729.353 1298.9 729.844 1298.88 730.275 1298.75 730.642 1298.62 731.009 1298.31 731.299 1297.8 731.509L1296.82 731.928C1296.5 732.044 1296.21 732.141 1295.95 732.221 1295.67 732.302 1295.33 732.399 1294.93 732.516 1294.05 732.773 1293.68 733.245 1293.81 733.93 1293.82 733.987 1293.9 734.232 1294.07 734.675 1294.22 735.115 1294.42 735.662 1294.67 736.311 1294.93 736.96 1295.2 737.677 1295.5 738.451 1295.8 739.228 1296.09 739.973 1296.37 740.687 1296.65 741.399 1296.9 742.037 1297.12 742.592 1297.34 743.148 1297.5 743.547 1297.61 743.781 1297.78 744.18 1297.92 744.49 1298.01 744.707 1298.11 744.925 1298.2 745.231 1298.27 745.63 1298.33 745.932 1298.29 746.247 1298.18 746.573 1298.06 746.899 1297.86 747.205 1297.58 747.496 1297.28 747.781 1296.92 748.044 1296.47 748.273 1296.02 748.503 1295.5 748.676 1294.89 748.789 1294.22 748.91 1293.71 748.797 1293.34 748.443 1292.97 748.088 1292.68 747.657 1292.47 747.149 1292.04 746.21 1291.62 745.239 1291.2 744.236 1290.79 743.233 1290.39 742.238 1290 741.251 1289.62 740.268 1289.24 739.301 1288.87 738.357 1288.52 737.415 1288.18 736.512 1287.87 735.65 1287.69 735.251 1287.46 734.973 1287.18 734.82 1286.89 734.667 1286.56 734.627 1286.18 734.695 1284.89 734.937 1283.61 735.219 1282.33 735.546 1281.04 735.872 1279.79 736.178 1278.54 736.468 1278.11 736.589 1277.8 736.795 1277.59 737.084 1277.39 737.379 1277.34 737.721 1277.4 738.12 1277.57 739.01 1277.74 739.889 1277.92 740.759 1278.11 741.63 1278.28 742.515 1278.45 743.426 1278.64 744.47 1278.83 745.542 1279.01 746.65 1279.18 747.754 1279.34 748.821 1279.47 749.857 1279.5 750.244 1279.45 750.574 1279.32 750.856 1279.18 751.134 1278.99 751.375 1278.74 751.577 1278.49 751.782 1278.2 751.944 1277.86 752.065 1277.52 752.19 1277.17 752.282 1276.81 752.351 1275.93 752.516 1275.2 752.496 1274.65 752.294 1274.11 752.092 1273.77 751.638 1273.64 750.936 1273.44 749.877 1273.27 748.761 1273.11 747.596 1272.95 746.428 1272.76 745.259 1272.54 744.083 1272.39 743.286 1272.24 742.515 1272.08 741.771 1271.93 741.025 1271.77 740.256 1271.62 739.458 1271.56 739.099 1271.42 738.842 1271.23 738.692 1271.04 738.544 1270.82 738.431 1270.57 738.362 1270.32 738.29 1270.05 738.229 1269.74 738.177 1269.43 738.124 1269.15 738.015 1268.88 737.85 1268.62 737.685 1268.37 737.415 1268.13 737.049 1267.9 736.677 1267.72 736.146 1267.58 735.445 1267.52 735.066 1267.53 734.751 1267.64 734.51 1267.74 734.264 1267.88 734.054 1268.08 733.881 1268.27 733.709 1268.48 733.555 1268.71 733.426 1268.94 733.293 1269.16 733.144 1269.35 732.971 1269.54 732.798 1269.69 732.596 1269.8 732.371 1269.9 732.145 1269.92 731.842 1269.85 731.464 1269.8 731.238 1269.74 730.968 1269.66 730.658 1269.59 730.352 1269.52 730.054 1269.44 729.776 1269.37 729.494 1269.3 729.244 1269.25 729.031 1269.18 728.817 1269.15 728.672 1269.14 728.595 1269.02 727.95 1269.01 727.419 1269.12 726.996 1269.23 726.573 1269.4 726.238 1269.63 725.992 1269.85 725.743 1270.13 725.553 1270.45 725.425 1270.76 725.3 1271.07 725.207 1271.38 725.15 1272.52 724.937 1273.35 725.006 1273.87 725.348 1274.39 725.694 1274.75 726.267 1274.94 727.076L1275.61 730.042C1275.73 730.489 1275.93 730.812 1276.17 731.009 1276.43 731.211 1276.79 731.263 1277.26 731.174L1283.67 729.751C1284.22 729.61 1284.55 729.393 1284.66 729.095 1284.78 728.8 1284.78 728.39 1284.67 727.858 1284.64 727.649 1284.54 727.346 1284.36 726.947 1284.19 726.544 1283.99 726.09 1283.75 725.573 1283.52 725.058 1283.26 724.506 1282.98 723.922 1282.69 723.337 1282.43 722.765 1282.18 722.201 1281.94 721.641 1281.73 721.11 1281.54 720.617 1281.35 720.122 1281.22 719.703 1281.16 719.365 1281.08 718.925 1281.13 718.551 1281.33 718.228 1281.53 717.906 1281.79 717.636 1282.15 717.415 1282.5 717.193 1282.89 717.011 1283.32 716.875 1283.74 716.738 1284.15 716.629 1284.55 716.556Z" fill="#FFFFFF" fill-rule="evenodd" transform="matrix(1 0 0 1.0016 -429.298 -181.002)"/><path d="M1317.6 720.465C1316.91 720.723 1316.22 721.21 1315.52 721.927 1314.83 722.644 1314.16 723.499 1313.53 724.486 1312.9 725.473 1312.33 726.544 1311.81 727.701 1311.29 728.857 1310.87 729.997 1310.55 731.125 1310.24 732.258 1310.04 733.33 1309.98 734.345 1309.9 735.36 1309.99 736.21 1310.25 736.896 1310.49 737.507 1310.84 737.923 1311.3 738.14 1311.76 738.357 1312.28 738.357 1312.86 738.14 1314.33 737.581 1315.65 736.186 1316.82 733.958 1317.97 731.73 1318.84 728.716 1319.4 724.917 1319.5 724.179 1319.62 723.62 1319.79 723.241 1319.95 722.858 1320.28 722.528 1320.74 722.245 1321.12 722.044 1321.27 721.843 1321.19 721.641 1321.14 721.5 1321.03 721.367 1320.86 721.242 1320.34 720.904 1319.83 720.63 1319.31 720.42 1318.8 720.211 1318.23 720.227 1317.6 720.465ZM1316.76 715.219C1317.75 714.844 1318.77 714.634 1319.81 714.594 1320.83 714.554 1321.81 714.671 1322.71 714.949 1323.62 715.223 1324.43 715.662 1325.15 716.258 1325.85 716.855 1326.38 717.616 1326.73 718.535 1326.87 718.913 1326.92 719.312 1326.88 719.728 1326.85 720.142 1326.73 720.538 1326.54 720.908 1326.35 721.279 1326.1 721.609 1325.79 721.903 1325.48 722.197 1325.12 722.419 1324.72 722.568 1324.69 722.58 1324.66 722.596 1324.63 722.617 1324.61 722.637 1324.59 722.652 1324.55 722.664 1324.52 722.696 1324.48 722.721 1324.45 722.733L1325.37 724.856C1326.42 727.411 1327.49 729.155 1328.6 730.098 1329.71 731.041 1330.79 731.31 1331.86 730.908 1332.23 730.767 1332.56 730.602 1332.83 730.421 1333.11 730.235 1333.35 730.042 1333.57 729.844 1333.8 729.647 1334.01 729.47 1334.22 729.309 1334.43 729.147 1334.66 729.022 1334.88 728.933 1335.3 728.777 1335.74 728.821 1336.19 729.063 1336.64 729.305 1336.96 729.675 1337.15 730.182 1337.34 730.687 1337.33 731.266 1337.14 731.915 1336.94 732.568 1336.61 733.216 1336.12 733.861 1335.65 734.502 1335.06 735.103 1334.36 735.654 1333.66 736.206 1332.9 736.633 1332.1 736.94 1330.68 737.471 1329.24 737.354 1327.73 736.593 1326.23 735.832 1324.82 734.409 1323.52 732.322 1323.27 732.004 1323.06 731.879 1322.89 731.948 1322.67 732.028 1322.52 732.206 1322.44 732.483 1321.5 735.413 1320.24 737.822 1318.64 739.712 1317.05 741.601 1315.27 742.919 1313.3 743.66 1312.38 744.007 1311.5 744.184 1310.66 744.192 1309.82 744.2 1309.05 744.055 1308.34 743.753 1307.65 743.451 1307.02 742.995 1306.47 742.387 1305.92 741.783 1305.48 741.037 1305.15 740.151 1304.68 738.906 1304.46 737.495 1304.49 735.916 1304.53 734.337 1304.76 732.705 1305.2 731.017 1305.63 729.329 1306.23 727.644 1307.01 725.972 1307.79 724.297 1308.69 722.741 1309.71 721.307 1310.72 719.873 1311.83 718.619 1313.03 717.548 1314.24 716.476 1315.48 715.698 1316.76 715.219Z" fill="#FFFFFF" fill-rule="evenodd" transform="matrix(1 0 0 1.0016 -429.298 -181.002)"/><path d="M1347.5 709.518C1346.32 710.21 1345.3 711.077 1344.43 712.116 1343.57 713.16 1342.91 714.26 1342.45 715.424 1341.99 716.585 1341.75 717.741 1341.73 718.893 1341.71 720.041 1341.96 721.073 1342.51 721.992 1343.08 722.971 1343.9 723.543 1344.96 723.7 1346.03 723.861 1347.15 723.595 1348.33 722.903 1350.61 721.573 1352.28 719.631 1353.34 717.08 1354.39 714.53 1354.79 711.488 1354.53 707.954 1354.51 707.838 1354.48 707.741 1354.46 707.673 1354.45 707.608 1354.42 707.54 1354.38 707.471 1354.28 707.306 1354.01 707.233 1353.55 707.254 1353.1 707.277 1352.55 707.387 1351.91 707.584 1351.25 707.781 1350.55 708.047 1349.77 708.378 1348.99 708.708 1348.24 709.091 1347.5 709.518ZM1354.99 698.542C1355.62 698.172 1356.22 698.043 1356.77 698.152 1357.33 698.264 1357.75 698.559 1358.03 699.042 1361.59 705.134 1364.41 710.429 1366.48 714.92 1368.55 719.417 1369.9 723.269 1370.52 726.476 1371.15 729.687 1371.07 732.322 1370.28 734.385 1369.5 736.452 1368.06 738.1 1365.95 739.337 1364.98 739.901 1363.86 740.271 1362.56 740.449 1361.27 740.622 1359.98 740.626 1358.73 740.457 1357.47 740.292 1356.33 739.961 1355.29 739.473 1354.25 738.982 1353.52 738.362 1353.08 737.616 1352.93 737.367 1352.9 736.995 1352.97 736.509 1353.04 736.017 1353.18 735.505 1353.37 734.965 1353.57 734.426 1353.81 733.926 1354.11 733.467 1354.39 733.003 1354.68 732.689 1354.99 732.512 1355.31 732.327 1355.65 732.302 1356.01 732.431 1356.38 732.564 1356.77 732.765 1357.19 733.036 1357.6 733.305 1358.04 733.611 1358.51 733.954 1358.98 734.293 1359.47 734.566 1359.99 734.776 1360.52 734.985 1361.08 735.09 1361.65 735.094 1362.24 735.098 1362.86 734.913 1363.51 734.534 1367.13 732.411 1366.03 725.622 1360.18 714.171 1359.88 713.671 1359.59 713.503 1359.32 713.668 1359.08 713.804 1358.97 714.03 1358.97 714.341 1358.64 717.366 1357.74 720.021 1356.27 722.298 1354.79 724.578 1352.79 726.46 1350.25 727.95 1349.06 728.64 1347.87 729.099 1346.66 729.325 1345.45 729.551 1344.29 729.558 1343.2 729.341 1342.1 729.123 1341.09 728.684 1340.17 728.027 1339.25 727.371 1338.48 726.509 1337.86 725.445 1337.24 724.397 1336.83 723.248 1336.6 722.008 1336.38 720.767 1336.33 719.494 1336.48 718.193 1336.63 716.891 1336.94 715.585 1337.42 714.276 1337.91 712.963 1338.53 711.71 1339.3 710.509 1340.08 709.308 1340.99 708.196 1342.03 707.173 1343.07 706.149 1344.24 705.263 1345.51 704.518 1346.31 704.05 1347.11 703.668 1347.9 703.373 1348.69 703.079 1349.41 702.833 1350.08 702.636 1350.75 702.434 1351.32 702.278 1351.81 702.161 1352.3 702.04 1352.64 701.927 1352.81 701.823 1352.97 701.734 1353.06 701.572 1353.11 701.335 1353.14 701.101 1353.22 700.831 1353.31 700.533 1353.4 700.231 1353.57 699.904 1353.8 699.554 1354.04 699.199 1354.45 698.861 1354.99 698.542Z" fill="#FFFFFF" fill-rule="evenodd" transform="matrix(1 0 0 1.0016 -429.298 -181.002)"/><path d="M1377.75 688.913C1377.13 689.409 1376.58 690.009 1376.08 690.71 1375.58 691.411 1375.19 692.125 1374.9 692.837 1374.61 693.554 1374.45 694.224 1374.4 694.844 1374.36 695.465 1374.47 695.944 1374.75 696.29 1375.03 696.633 1375.38 696.637 1375.8 696.294 1376.05 696.089 1376.45 695.726 1376.96 695.202 1377.48 694.682 1378.05 694.103 1378.68 693.462 1379.3 692.822 1379.92 692.16 1380.54 691.488 1381.16 690.81 1381.69 690.214 1382.14 689.703 1382.33 689.473 1382.44 689.207 1382.46 688.901 1382.49 688.595 1382.4 688.317 1382.2 688.063 1382.01 687.837 1381.76 687.692 1381.44 687.632 1381.11 687.571 1380.75 687.579 1380.34 687.652 1379.92 687.724 1379.49 687.869 1379.05 688.083 1378.6 688.297 1378.16 688.571 1377.75 688.913ZM1374.73 684.505C1375.84 683.607 1377.01 682.926 1378.23 682.467 1379.46 682.004 1380.67 681.77 1381.85 681.753 1383.03 681.741 1384.13 681.95 1385.16 682.378 1386.2 682.809 1387.07 683.466 1387.78 684.349 1388.29 684.965 1388.62 685.622 1388.79 686.327 1388.96 687.027 1388.98 687.753 1388.85 688.502 1388.7 689.248 1388.41 689.997 1387.97 690.754 1387.52 691.508 1386.93 692.253 1386.19 692.982L1379.02 700.086C1378.72 700.332 1378.54 700.601 1378.47 700.904 1378.41 701.206 1378.48 701.483 1378.68 701.737 1379.01 702.128 1379.45 702.382 1380.03 702.507 1380.62 702.628 1381.26 702.632 1381.98 702.515 1382.68 702.399 1383.43 702.161 1384.2 701.81 1384.97 701.46 1385.69 701.012 1386.36 700.464 1387.01 699.945 1387.62 699.34 1388.19 698.663 1388.78 697.983 1389.3 697.253 1389.77 696.471 1390.25 695.694 1390.66 694.88 1391.02 694.034 1391.37 693.188 1391.65 692.322 1391.85 691.435 1391.98 690.71 1392.26 690.178 1392.68 689.836 1392.92 689.642 1393.18 689.526 1393.48 689.489 1393.77 689.453 1394.14 689.461 1394.59 689.522 1395.09 689.687 1395.48 689.836 1395.75 689.973 1396.02 690.113 1396.25 690.287 1396.41 690.497 1396.78 690.943 1396.9 691.556 1396.78 692.322 1396.55 693.507 1396.2 694.67 1395.74 695.823 1395.29 696.975 1394.73 698.087 1394.09 699.155 1393.44 700.227 1392.7 701.242 1391.87 702.201 1391.04 703.164 1390.14 704.034 1389.18 704.811 1387.97 705.795 1386.7 706.56 1385.39 707.116 1384.08 707.673 1382.77 708.003 1381.48 708.107 1380.19 708.212 1378.93 708.092 1377.72 707.753 1376.49 707.414 1375.36 706.838 1374.31 706.028 1373.83 705.718 1373.49 705.545 1373.27 705.508 1373.06 705.473 1372.82 705.557 1372.57 705.767 1372.01 706.214 1371.48 706.424 1370.96 706.399 1370.44 706.371 1369.98 706.105 1369.56 705.594 1369.39 705.384 1369.3 705.239 1369.28 705.154L1368.96 704.667C1368.6 704.067 1368.43 703.559 1368.46 703.144 1368.48 702.729 1368.72 702.333 1369.18 701.955L1369.52 701.681C1370.16 701.173 1370.36 700.525 1370.14 699.731 1369.76 698.321 1369.59 696.899 1369.61 695.465 1369.64 694.026 1369.86 692.64 1370.27 691.307 1370.68 689.973 1371.26 688.719 1372.01 687.551 1372.76 686.383 1373.67 685.367 1374.73 684.505Z" fill="#FFFFFF" fill-rule="evenodd" transform="matrix(1 0 0 1.0016 -429.298 -181.002)"/><path d="M1400.78 668.55C1399.99 669.397 1399.4 670.287 1399.02 671.213 1398.63 672.144 1398.44 673.067 1398.46 673.989 1398.47 674.908 1398.68 675.802 1399.07 676.664 1399.47 677.531 1400.04 678.317 1400.8 679.026 1401.48 679.654 1402.19 680.118 1402.92 680.42 1403.66 680.718 1404.38 680.867 1405.1 680.859 1405.82 680.851 1406.52 680.694 1407.2 680.379 1407.88 680.07 1408.51 679.606 1409.07 679.002 1409.82 678.196 1410.31 677.314 1410.53 676.354 1410.76 675.4 1410.84 674.425 1410.75 673.434 1410.65 672.438 1410.43 671.467 1410.09 670.52 1409.75 669.57 1409.37 668.703 1408.94 667.914 1408.51 667.124 1408.1 666.451 1407.7 665.895 1407.3 665.335 1406.99 664.961 1406.77 664.763 1406.62 664.618 1406.44 664.533 1406.24 664.505 1406.04 664.481 1405.83 664.517 1405.6 664.622 1405.15 664.912 1404.69 665.227 1404.23 665.565 1403.78 665.903 1403.34 666.242 1402.91 666.584 1402.49 666.931 1402.1 667.269 1401.73 667.604 1401.37 667.938 1401.05 668.252 1400.78 668.55ZM1395.19 648.933C1396.02 648.039 1396.78 647.583 1397.48 647.554 1398.2 647.527 1399 647.93 1399.89 648.756 1400.23 649.069 1400.7 649.554 1401.33 650.202 1401.94 650.855 1402.65 651.592 1403.43 652.414 1404.22 653.239 1405.07 654.114 1405.99 655.041 1406.9 655.968 1407.83 656.866 1408.76 657.729 1410.2 659.066 1411.53 660.121 1412.76 660.895 1413.99 661.665 1415.12 662.185 1416.15 662.454 1417.17 662.72 1418.09 662.756 1418.9 662.555 1419.7 662.353 1420.39 661.934 1420.99 661.298 1421.32 660.948 1421.57 660.581 1421.74 660.206 1421.92 659.831 1422.19 659.444 1422.56 659.05 1422.82 658.768 1423.18 658.667 1423.65 658.744 1424.12 658.82 1424.56 659.05 1424.97 659.429 1425.34 659.771 1425.58 660.202 1425.7 660.722 1425.82 661.242 1425.83 661.801 1425.72 662.398 1425.62 662.998 1425.4 663.607 1425.08 664.223 1424.75 664.843 1424.35 665.424 1423.85 665.959 1422.77 667.12 1421.43 667.849 1419.82 668.148 1418.22 668.445 1416.46 668.156 1414.54 667.273 1414.28 667.104 1414.09 667.072 1414.01 667.168 1413.9 667.281 1413.93 667.479 1414.08 667.76 1414.77 669.099 1415.24 670.46 1415.5 671.842 1415.74 673.224 1415.79 674.594 1415.62 675.947 1415.46 677.305 1415.08 678.61 1414.5 679.868 1413.91 681.125 1413.12 682.293 1412.12 683.366 1411.08 684.497 1409.93 685.359 1408.67 685.952 1407.43 686.544 1406.16 686.871 1404.86 686.927 1403.56 686.979 1402.27 686.778 1401.01 686.314 1399.74 685.851 1398.58 685.125 1397.52 684.142 1396.16 682.886 1395.15 681.415 1394.47 679.735 1393.79 678.055 1393.45 676.314 1393.45 674.513 1393.45 672.712 1393.79 670.927 1394.46 669.154 1395.13 667.386 1396.14 665.77 1397.48 664.316 1398.03 663.72 1398.67 663.136 1399.37 662.555 1400.08 661.975 1400.87 661.419 1401.73 660.879 1401.81 660.85 1401.9 660.778 1402.01 660.665 1402.3 660.355 1402.24 660.008 1401.83 659.63L1395.24 653.514C1394.4 652.74 1393.98 652.003 1393.97 651.298 1393.97 650.596 1394.38 649.807 1395.19 648.933Z" fill="#FFFFFF" fill-rule="evenodd" transform="matrix(1 0 0 1.0016 -429.298 -181.002)"/><path d="M1423.34 639.194C1422.1 640.943 1421.6 642.599 1421.85 644.17 1422.1 645.738 1423.16 647.184 1425.03 648.51 1426.05 649.234 1427.12 649.751 1428.2 650.065 1429.3 650.375 1430.35 650.48 1431.38 650.379 1432.41 650.283 1433.37 649.985 1434.26 649.493 1435.15 649.002 1435.9 648.317 1436.53 647.434 1437 646.773 1437.35 645.995 1437.58 645.097 1437.82 644.199 1437.88 643.276 1437.79 642.321 1437.7 641.371 1437.41 640.44 1436.95 639.533 1436.48 638.622 1435.78 637.841 1434.86 637.184 1433.91 636.516 1432.91 636.064 1431.85 635.831 1430.78 635.597 1429.73 635.568 1428.69 635.745 1427.67 635.923 1426.68 636.302 1425.75 636.886 1424.81 637.466 1424.02 638.236 1423.34 639.194ZM1419.27 635.432C1420.34 633.92 1421.62 632.7 1423.12 631.765 1424.62 630.831 1426.21 630.213 1427.87 629.915 1429.53 629.617 1431.21 629.637 1432.92 629.984 1434.63 630.326 1436.21 631.023 1437.7 632.071 1439.15 633.095 1440.3 634.368 1441.17 635.895 1442.05 637.418 1442.6 639.038 1442.85 640.75 1443.11 642.466 1443.04 644.214 1442.63 645.995 1442.23 647.78 1441.49 649.436 1440.41 650.963 1439.36 652.458 1438.12 653.663 1436.72 654.581 1435.3 655.5 1433.84 656.108 1432.29 656.407 1430.74 656.709 1429.17 656.685 1427.59 656.342 1426.01 656 1424.48 655.315 1423.03 654.288 1422.77 654.098 1422.48 653.857 1422.2 653.559 1421.92 653.264 1421.58 652.973 1421.19 652.696 1420.92 652.507 1420.63 652.478 1420.33 652.603 1420.03 652.732 1419.69 652.877 1419.31 653.039 1418.93 653.199 1418.54 653.3 1418.11 653.337 1417.68 653.377 1417.21 653.216 1416.71 652.861 1416.35 652.603 1416.06 652.249 1415.84 651.798 1415.62 651.347 1415.49 650.822 1415.45 650.234 1415.41 648.815 1415.48 647.414 1415.63 646.024 1415.79 644.634 1416.04 643.304 1416.37 642.039 1416.69 640.774 1417.1 639.578 1417.59 638.457 1418.07 637.337 1418.63 636.33 1419.27 635.432Z" fill="#FFFFFF" fill-rule="evenodd" transform="matrix(1 0 0 1.0016 -429.298 -181.002)"/><path d="M1435.48 603.199C1435.86 602.542 1436.29 601.913 1436.78 601.309 1437.28 600.704 1437.8 600.201 1438.33 599.795 1438.87 599.391 1439.4 599.113 1439.93 598.968 1440.46 598.823 1440.93 598.868 1441.35 599.105 1441.65 599.275 1441.97 599.541 1442.31 599.899 1442.65 600.258 1442.95 600.645 1443.22 601.059 1443.49 601.475 1443.67 601.886 1443.79 602.292 1443.9 602.699 1443.88 603.038 1443.72 603.303 1443.56 603.606 1443.3 603.852 1442.96 604.037 1442.62 604.222 1442.27 604.424 1441.88 604.637 1441.5 604.851 1441.11 605.088 1440.72 605.35 1440.35 605.608 1440.03 605.967 1439.77 606.422 1439.42 607.042 1439.28 607.679 1439.34 608.335 1439.4 608.988 1439.62 609.65 1440.02 610.31 1440.4 610.975 1440.93 611.636 1441.59 612.293 1442.25 612.953 1443 613.61 1443.84 614.266 1444.7 614.924 1445.6 615.56 1446.58 616.18 1447.56 616.797 1448.57 617.397 1449.58 617.978 1450.93 618.735 1452.28 619.428 1453.65 620.052 1455.01 620.677 1456.24 621.306 1457.35 621.93 1458.08 622.337 1458.49 622.925 1458.6 623.695 1458.71 624.464 1458.48 625.346 1457.92 626.338 1457.82 626.519 1457.68 626.72 1457.52 626.938 1457.35 627.151 1457.16 627.337 1456.93 627.491 1456.72 627.643 1456.47 627.752 1456.21 627.809 1455.94 627.868 1455.65 627.824 1455.33 627.668 1453.77 626.986 1452.14 626.35 1450.44 625.762 1448.73 625.178 1446.99 624.661 1445.21 624.222 1443.44 623.784 1441.62 623.437 1439.77 623.179 1437.93 622.921 1436.07 622.768 1434.19 622.728 1433.86 622.72 1433.55 622.7 1433.29 622.668 1433.01 622.635 1432.78 622.562 1432.58 622.449 1432.32 622.309 1432.11 622.043 1431.95 621.648 1431.78 621.257 1431.67 620.818 1431.62 620.331 1431.56 619.843 1431.57 619.351 1431.65 618.848 1431.72 618.348 1431.86 617.905 1432.08 617.518 1432.43 616.877 1433.2 616.567 1434.35 616.575 1435.51 616.587 1437.17 616.93 1439.34 617.599 1439.73 617.703 1439.99 617.772 1440.16 617.796 1440.32 617.82 1440.42 617.792 1440.48 617.707 1440.58 617.526 1440.36 617.244 1439.82 616.873 1438.33 615.769 1437.16 614.65 1436.28 613.513 1435.41 612.377 1434.8 611.233 1434.47 610.081 1434.13 608.928 1434.06 607.78 1434.24 606.632 1434.42 605.483 1434.84 604.339 1435.48 603.199Z" fill="#FFFFFF" fill-rule="evenodd" transform="matrix(1 0 0 1.0016 -429.298 -181.002)"/><path d="M1442.18 593.094C1442.3 592.832 1442.48 592.639 1442.7 592.518 1442.92 592.397 1443.27 592.353 1443.72 592.389 1444.18 592.425 1444.8 592.546 1445.56 592.752 1446.32 592.957 1447.29 593.263 1448.49 593.67 1448.87 593.755 1449.17 593.811 1449.38 593.831 1449.59 593.851 1449.72 593.811 1449.77 593.706 1449.84 593.545 1449.64 593.267 1449.16 592.864 1446.03 589.915 1445 587.228 1446.09 584.798 1446.59 583.674 1447.41 582.808 1448.52 582.2 1449.65 581.591 1451.18 581.24 1453.13 581.156 1455.08 581.067 1457.52 581.245 1460.43 581.688 1463.35 582.127 1466.87 582.84 1471 583.819 1471.2 583.871 1471.39 583.924 1471.56 583.976 1471.72 584.033 1471.88 584.089 1472.02 584.154 1472.43 584.335 1472.73 584.58 1472.93 584.895 1473.14 585.209 1473.27 585.56 1473.33 585.942 1473.37 586.321 1473.36 586.72 1473.3 587.135 1473.23 587.546 1473.11 587.937 1472.94 588.307 1472.61 589.045 1472.3 589.544 1472 589.799 1471.69 590.052 1471.3 590.125 1470.81 590.016 1467.92 589.327 1465.32 588.759 1463.03 588.316 1460.74 587.868 1458.77 587.562 1457.15 587.393 1455.53 587.223 1454.23 587.203 1453.3 587.328 1452.34 587.457 1451.78 587.747 1451.57 588.206 1451.36 588.662 1451.45 589.218 1451.85 589.871 1452.24 590.519 1452.97 591.305 1454.02 592.216 1455.07 593.13 1456.44 594.178 1458.16 595.354 1459.87 596.534 1461.95 597.861 1464.39 599.335 1465.05 599.738 1465.46 600.342 1465.61 601.148 1465.75 601.953 1465.61 602.832 1465.19 603.783 1464.91 604.416 1464.56 604.839 1464.14 605.056 1463.73 605.274 1463.28 605.294 1462.81 605.125 1459.08 603.642 1455.99 602.465 1453.55 601.591 1451.1 600.713 1449.12 600.036 1447.61 599.553 1446.11 599.065 1444.98 598.719 1444.23 598.509 1443.48 598.3 1442.93 598.122 1442.6 597.969 1442.34 597.852 1442.13 597.623 1441.97 597.28 1441.82 596.938 1441.72 596.534 1441.69 596.075 1441.65 595.612 1441.68 595.12 1441.75 594.597 1441.83 594.069 1441.97 593.57 1442.18 593.094Z" fill="#FFFFFF" fill-rule="evenodd" transform="matrix(1 0 0 1.0016 -429.298 -181.002)"/><path d="M1079.34 393.767C1078.85 394.303 1078.89 395.016 1079.45 395.906 1080.32 397.475 1081.2 399.012 1082.07 400.519 1082.95 402.026 1083.85 403.563 1084.77 405.131 1084.83 405.271 1084.92 405.376 1085 405.456 1085.09 405.533 1085.18 405.617 1085.29 405.715 1086.08 406.432 1086.86 406.371 1087.61 405.533L1087.9 405.21C1088.89 403.772 1089.91 402.365 1090.98 400.992 1092.03 399.619 1093.11 398.261 1094.21 396.916 1094.55 396.449 1094.75 396.01 1094.78 395.6 1094.83 395.188 1094.69 394.848 1094.4 394.578 1094.11 394.327 1093.66 394.156 1093.05 394.066 1091.04 393.883 1089.04 393.722 1087.05 393.581 1085.06 393.439 1083.05 393.329 1081.03 393.25 1080.64 393.29 1080.3 393.339 1080.02 393.394 1079.73 393.45 1079.51 393.573 1079.34 393.767ZM1071.08 385.86C1071.65 385.217 1072.43 384.768 1073.4 384.514 1074.74 384.199 1076.17 384.002 1077.73 383.921 1079.27 383.841 1081.13 383.867 1083.3 383.999 1085.48 384.131 1088.05 384.339 1091.04 384.624 1094.03 384.908 1097.63 385.257 1101.84 385.672 1102.41 385.683 1102.92 385.606 1103.36 385.44 1103.8 385.274 1104.21 384.977 1104.6 384.548L1106.25 382.715C1106.93 381.965 1107.63 381.54 1108.36 381.44 1109.09 381.341 1109.77 381.573 1110.39 382.133 1110.52 382.248 1110.67 382.389 1110.82 382.554 1110.99 382.719 1111.13 382.911 1111.24 383.131L1112.49 385.364C1112.62 385.562 1112.74 385.729 1112.85 385.866 1112.96 386.003 1113.08 386.13 1113.21 386.246 1113.66 386.651 1114.25 386.916 1115 387.042L1122.79 387.832C1123.72 387.967 1124.43 388.267 1124.95 388.731 1125.72 389.426 1126 390.474 1125.79 391.874L1125.55 393.879C1125.48 394.352 1125.37 394.772 1125.24 395.136 1125.1 395.5 1124.91 395.822 1124.66 396.101 1124.31 396.487 1123.87 396.745 1123.35 396.874 1122.83 397.003 1122.23 397.045 1121.58 396.996 1119.2 396.712 1116.83 396.451 1114.47 396.216 1112.13 395.981 1109.77 395.772 1107.41 395.587 1106.28 395.462 1105.35 395.807 1104.61 396.621 1102.37 399.333 1100.18 402.052 1098.05 404.776 1095.92 407.503 1093.83 410.267 1091.77 413.072 1091.02 414.07 1091 415.094 1091.68 416.142L1095.68 422.366C1096.76 424.026 1096.68 425.526 1095.49 426.851L1095.02 427.367 1093.99 428.249C1093.28 428.918 1092.56 429.268 1091.83 429.297 1091.11 429.32 1090.44 429.054 1089.81 428.495 1089.68 428.378 1089.56 428.245 1089.42 428.088 1089.29 427.931 1089.16 427.753 1089.02 427.556 1088.69 427.061 1088.35 426.553 1088.02 426.029 1087.67 425.505 1087.35 424.985 1087.03 424.474 1086.9 424.276 1086.77 424.103 1086.65 423.954 1086.53 423.809 1086.4 423.676 1086.27 423.563 1085.61 422.963 1085.04 422.918 1084.59 423.435L1084.21 423.854C1083.88 424.216 1083.45 424.325 1082.93 424.179 1082.39 424.034 1081.8 423.66 1081.14 423.063 1081.03 422.967 1080.91 422.854 1080.76 422.729 1080.62 422.605 1080.37 422.334 1080 421.928 1078.51 420.469 1078.3 418.898 1079.36 417.209L1079.96 416.412C1080.34 415.859 1080.53 415.336 1080.54 414.836 1080.54 414.333 1080.38 413.817 1080.05 413.281 1079.15 411.814 1078.25 410.34 1077.33 408.857 1076.41 407.37 1075.53 405.875 1074.67 404.368 1074.19 403.535 1073.64 402.654 1073.07 401.723 1072.49 400.793 1071.93 399.846 1071.41 398.882 1070.88 397.92 1070.39 396.923 1069.96 395.893 1069.53 394.863 1069.21 393.843 1068.99 392.833 1068.9 392.409 1068.89 391.899 1068.91 391.305 1068.94 390.711 1069.04 390.093 1069.22 389.45 1069.39 388.808 1069.63 388.173 1069.94 387.544 1070.25 386.914 1070.64 386.352 1071.08 385.86Z" fill="#FFFFFF" fill-rule="evenodd" transform="matrix(1 0 0 1.0016 -429.298 -181.002)"/><path d="M1129.27 338.13C1130.54 337.341 1131.88 336.698 1133.28 336.201 1134.69 335.704 1136.09 335.484 1137.48 335.539 1138.87 335.594 1140.22 335.984 1141.52 336.708 1142.81 337.433 1143.98 338.629 1145 340.298 1145.74 341.476 1146.2 342.753 1146.38 344.128 1146.57 345.504 1146.58 346.925 1146.4 348.393 1146.22 349.86 1145.9 351.347 1145.44 352.852 1144.98 354.358 1144.45 355.805 1143.86 357.195 1143.25 358.583 1142.63 359.897 1141.97 361.136 1141.31 362.374 1140.7 363.473 1140.14 364.431 1139.68 365.288 1139.59 365.938 1139.87 366.379 1140.19 366.895 1140.82 367.064 1141.76 366.888 1144.97 366.196 1148.19 365.404 1151.44 364.514 1154.69 363.623 1158.03 362.808 1161.47 362.068 1163.11 361.739 1164.24 362.09 1164.88 363.12 1165.18 363.612 1165.35 364.196 1165.38 364.873 1165.41 365.55 1165.38 366.204 1165.29 366.833 1165.23 368.329 1164.67 369.403 1163.62 370.056 1163.25 370.283 1162.76 370.491 1162.12 370.678 1160.14 371.051 1158.04 371.472 1155.81 371.94 1153.57 372.409 1151.29 372.906 1148.99 373.433 1146.69 373.959 1144.43 374.492 1142.21 375.029 1140 375.567 1137.96 376.076 1136.09 376.556 1135.44 376.758 1135.01 376.92 1134.81 377.041 1134.61 377.163 1134.48 377.301 1134.43 377.455 1134.37 377.609 1134.43 377.821 1134.59 378.091 1134.64 378.165 1134.7 378.249 1134.81 378.344 1134.9 378.44 1134.98 378.549 1135.05 378.671 1135.36 378.994 1135.75 379.422 1136.24 379.955 1136.71 380.488 1137.21 381.039 1137.71 381.608 1138.22 382.178 1138.68 382.728 1139.12 383.259 1139.55 383.79 1139.88 384.24 1140.11 384.608 1140.95 385.982 1140.79 387.402 1139.64 388.868L1138.3 390.408C1138.1 390.633 1137.91 390.825 1137.74 390.984 1137.57 391.141 1137.36 391.289 1137.14 391.426 1135.8 392.261 1134.49 391.913 1133.25 390.38 1129.89 386.279 1126.4 382.342 1122.8 378.568 1119.2 374.794 1115.46 371.112 1111.62 367.523 1111.39 367.323 1111.22 367.135 1111.09 366.959 1110.96 366.782 1110.85 366.62 1110.77 366.473 1109.96 365.172 1110.11 363.856 1111.23 362.525 1111.63 362.034 1111.97 361.638 1112.24 361.334 1112.51 361.031 1112.73 360.785 1112.91 360.594 1113.07 360.404 1113.21 360.262 1113.3 360.17 1113.39 360.076 1113.49 360 1113.59 359.939 1114.91 359.119 1116.24 359.336 1117.55 360.59 1119.26 362.185 1120.89 363.737 1122.45 365.249 1124.01 366.758 1125.52 368.27 1126.96 369.784 1127.69 370.523 1128.31 370.732 1128.83 370.413 1128.97 370.322 1129.13 370.185 1129.28 370.002 1129.44 369.819 1129.62 369.583 1129.82 369.293 1130.34 368.39 1130.97 367.287 1131.71 365.982 1132.45 364.678 1133.19 363.276 1133.94 361.776 1134.69 360.277 1135.41 358.741 1136.08 357.171 1136.75 355.6 1137.3 354.105 1137.73 352.686 1138.16 351.269 1138.42 349.972 1138.51 348.797 1138.59 347.623 1138.42 346.68 1137.98 345.969 1137.7 345.527 1137.39 345.164 1137.02 344.879 1136.67 344.595 1136.21 344.432 1135.68 344.39 1135.14 344.347 1134.51 344.446 1133.81 344.687 1133.08 344.926 1132.25 345.342 1131.29 345.934 1130.36 346.511 1129.43 347.194 1128.51 347.984 1127.6 348.773 1126.72 349.614 1125.87 350.506 1125.04 351.399 1124.23 352.32 1123.46 353.271 1122.69 354.222 1121.98 355.155 1121.32 356.069 1120.96 356.569 1120.54 356.964 1120.07 357.252 1118.89 357.981 1117.66 357.783 1116.34 356.657 1116 356.366 1115.72 356.108 1115.54 355.885 1115.34 355.662 1115.19 355.453 1115.07 355.257 1114.35 354.104 1114.47 352.842 1115.43 351.474 1117.37 348.849 1119.47 346.39 1121.76 344.097 1124.04 341.804 1126.54 339.815 1129.27 338.13Z" fill="#FFFFFF" fill-rule="evenodd" transform="matrix(1 0 0 1.0016 -429.298 -181.002)"/><path d="M1182.38 311.515C1183.25 311.214 1184.02 311.266 1184.66 311.671 1185.3 312.076 1185.79 312.783 1186.14 313.792 1186.32 314.311 1186.45 314.823 1186.53 315.328 1186.61 315.834 1186.61 316.315 1186.52 316.773 1186.44 317.229 1186.24 317.647 1185.95 318.023 1185.65 318.4 1185.21 318.72 1184.63 318.98 1183.15 319.734 1181.58 320.572 1179.91 321.496 1178.25 322.42 1176.83 323.298 1175.64 324.13 1175.16 324.482 1174.84 324.888 1174.69 325.35 1174.54 325.813 1174.52 326.33 1174.63 326.904 1174.73 327.451 1174.85 327.993 1175.03 328.53 1175.19 329.066 1175.37 329.581 1175.53 330.071 1175.93 331.217 1176.38 332.346 1176.86 333.46 1177.35 334.573 1177.83 335.688 1178.31 336.806 1179.91 340.651 1181.62 344.411 1183.45 348.084 1185.28 351.757 1187.17 355.456 1189.11 359.178 1189.22 359.296 1189.3 359.423 1189.33 359.56 1189.39 359.696 1189.44 359.832 1189.48 359.969 1189.99 361.469 1189.52 362.825 1188.04 364.033L1186.4 365.24C1185.96 365.573 1185.51 365.819 1185.05 365.979 1184.34 366.222 1183.69 366.195 1183.1 365.894 1182.5 365.594 1182 365.031 1181.56 364.205 1179.17 359.774 1176.9 355.332 1174.73 350.877 1172.55 346.422 1170.57 341.862 1168.78 337.198 1168.47 336.453 1168.14 335.635 1167.81 334.744 1167.47 333.853 1167.14 332.93 1166.81 331.975 1166.35 330.638 1165.55 330.162 1164.44 330.546 1164.22 330.621 1163.82 330.812 1163.24 331.119 1162.67 331.426 1161.99 331.788 1161.21 332.206 1160.45 332.624 1159.64 333.076 1158.8 333.563 1157.95 334.05 1157.16 334.498 1156.42 334.907 1155.68 335.315 1155.03 335.668 1154.48 335.966 1153.92 336.263 1153.55 336.444 1153.36 336.51 1151.53 337.138 1150.29 336.498 1149.62 334.588 1149.45 334.07 1149.32 333.541 1149.25 333.004 1149.17 332.467 1149.18 331.944 1149.28 331.437 1149.38 330.93 1149.58 330.455 1149.88 330.014 1150.19 329.573 1150.64 329.191 1151.23 328.865 1154.26 327.276 1157.26 325.665 1160.24 324.03 1163.21 322.396 1166.21 320.725 1169.21 319.018 1169.87 318.637 1170.48 318.287 1171 317.968 1171.53 317.647 1172.12 317.256 1172.75 316.794 1173.44 316.313 1174.2 315.815 1175.04 315.301 1175.86 314.786 1176.71 314.29 1177.57 313.812 1178.42 313.334 1179.27 312.892 1180.08 312.488 1180.91 312.084 1181.67 311.759 1182.38 311.515Z" fill="#FFFFFF" fill-rule="evenodd" transform="matrix(1 0 0 1.0016 -429.298 -181.002)"/><path d="M1221.75 327.744C1220.58 327.879 1219.4 328.191 1218.2 328.677 1217.01 329.164 1215.94 329.746 1215 330.421 1214.07 331.096 1213.33 331.806 1212.77 332.553 1212.22 333.299 1211.98 334.003 1212.05 334.661 1212.13 335.321 1212.57 335.604 1213.37 335.511 1213.86 335.454 1214.64 335.306 1215.72 335.066 1216.79 334.824 1217.98 334.548 1219.29 334.238 1220.58 333.928 1221.89 333.595 1223.22 333.238 1224.54 332.881 1225.7 332.559 1226.68 332.27 1227.1 332.135 1227.45 331.884 1227.72 331.517 1228 331.151 1228.11 330.725 1228.05 330.237 1228.01 329.808 1227.8 329.425 1227.44 329.089 1227.08 328.752 1226.61 328.465 1226.04 328.228 1225.46 327.989 1224.8 327.826 1224.06 327.737 1223.33 327.648 1222.56 327.65 1221.75 327.744ZM1221.48 319.758C1223.61 319.512 1225.62 319.591 1227.54 319.992 1229.47 320.395 1231.17 321.06 1232.68 321.99 1234.18 322.92 1235.41 324.07 1236.36 325.441 1237.33 326.811 1237.9 328.342 1238.1 330.033 1238.23 331.208 1238.12 332.31 1237.78 333.337 1237.44 334.365 1236.88 335.294 1236.1 336.125 1235.33 336.955 1234.35 337.67 1233.19 338.27 1232.02 338.87 1230.68 339.33 1229.15 339.653L1214.41 342.886C1213.83 342.952 1213.38 343.15 1213.05 343.478 1212.73 343.806 1212.59 344.213 1212.65 344.7 1212.74 345.446 1213.11 346.13 1213.74 346.754 1214.38 347.376 1215.2 347.899 1216.19 348.322 1217.18 348.744 1218.31 349.043 1219.55 349.216 1220.82 349.39 1222.08 349.403 1223.38 349.254 1224.61 349.111 1225.86 348.842 1227.14 348.448 1228.41 348.053 1229.66 347.553 1230.88 346.945 1232.11 346.339 1233.28 345.644 1234.41 344.86 1235.54 344.075 1236.59 343.207 1237.55 342.252 1238.3 341.439 1239.08 340.986 1239.87 340.894 1240.33 340.84 1240.76 340.907 1241.17 341.094 1241.56 341.28 1242.02 341.589 1242.53 342.023 1243.04 342.633 1243.41 343.135 1243.64 343.528 1243.88 343.923 1244.02 344.321 1244.07 344.722 1244.17 345.582 1243.83 346.448 1243.07 347.321 1241.82 348.627 1240.44 349.825 1238.95 350.914 1237.44 352.002 1235.86 352.963 1234.18 353.796 1232.5 354.63 1230.76 355.319 1228.93 355.864 1227.11 356.41 1225.28 356.788 1223.44 357.001 1221.12 357.27 1218.91 357.229 1216.81 356.876 1214.71 356.524 1212.79 355.897 1211.08 354.992 1209.36 354.087 1207.87 352.93 1206.6 351.523 1205.34 350.116 1204.36 348.479 1203.68 346.612 1203.33 345.839 1203.04 345.343 1202.79 345.125 1202.55 344.906 1202.18 344.825 1201.69 344.881 1200.63 345.004 1199.79 344.841 1199.16 344.391 1198.52 343.942 1198.15 343.229 1198.04 342.255 1197.98 341.854 1197.98 341.592 1198.03 341.471L1198.02 340.602C1198.04 339.553 1198.23 338.775 1198.6 338.269 1198.96 337.762 1199.59 337.457 1200.47 337.354L1201.12 337.279C1202.32 337.14 1203.1 336.483 1203.46 335.309 1204.12 333.229 1205.04 331.291 1206.23 329.498 1207.41 327.705 1208.8 326.129 1210.39 324.769 1211.97 323.409 1213.71 322.292 1215.6 321.42 1217.49 320.547 1219.45 319.993 1221.48 319.758Z" fill="#FFFFFF" fill-rule="evenodd" transform="matrix(1 0 0 1.0016 -429.298 -181.002)"/><path d="M1254.41 299.202C1255.1 299.242 1255.7 299.348 1256.21 299.522 1256.72 299.696 1257.14 299.958 1257.46 300.309 1257.79 300.659 1258.05 301.123 1258.23 301.697 1258.42 302.271 1258.56 302.994 1258.65 303.866 1258.88 306.452 1259.11 309.16 1259.34 311.99 1259.56 314.821 1259.78 317.637 1259.98 320.437 1260.18 323.238 1260.36 325.965 1260.54 328.619 1260.7 331.273 1260.84 333.738 1260.96 336.013 1261.07 338.288 1261.14 340.301 1261.18 342.051 1261.21 343.802 1261.2 345.181 1261.13 346.189 1261.08 347.226 1260.93 348.099 1260.7 348.809 1260.47 349.518 1260.12 350.076 1259.66 350.483 1259.18 350.89 1258.59 351.166 1257.88 351.313 1257.15 351.46 1256.28 351.504 1255.25 351.445 1254.24 351.388 1253.45 351.082 1252.89 350.53 1252.33 349.978 1252.07 349.169 1252.14 348.104 1252.2 347.009 1252.2 345.541 1252.13 343.703 1252.06 341.864 1251.94 339.812 1251.79 337.549 1251.63 335.285 1251.44 332.876 1251.23 330.321 1251.01 327.765 1250.78 325.237 1250.53 322.737 1250.28 320.238 1250.05 317.833 1249.82 315.523 1249.59 313.212 1249.38 311.162 1249.19 309.374 1249 307.586 1248.85 306.118 1248.74 304.97 1248.64 303.822 1248.59 303.177 1248.6 303.033 1248.68 301.534 1249.17 300.493 1250.07 299.909 1250.97 299.324 1252.42 299.089 1254.41 299.202Z" fill="#FFFFFF" fill-rule="evenodd" transform="matrix(1 0 0 1.0016 -429.298 -181.002)"/><path d="M1278.76 320.784C1281.32 321.195 1282.55 322.298 1282.44 324.091 1282.35 325.334 1282.25 326.736 1282.13 328.295 1282.01 329.854 1281.89 331.505 1281.74 333.25 1281.58 334.994 1281.42 336.793 1281.22 338.647 1281.02 340.5 1280.83 342.324 1280.63 344.118 1280.43 345.913 1280.23 347.641 1280.02 349.302 1279.81 350.964 1279.59 352.478 1279.37 353.846 1279.15 355.271 1278.47 356.257 1277.35 356.808 1276.22 357.358 1274.69 357.478 1272.75 357.167 1271.87 357.026 1271.21 356.709 1270.78 356.215 1270.35 355.723 1270.19 355.077 1270.32 354.279 1270.95 350.348 1271.45 346.65 1271.82 343.188 1272.18 339.725 1272.47 336.637 1272.69 333.925 1272.9 331.213 1273.05 328.951 1273.16 327.141 1273.26 325.331 1273.36 324.098 1273.47 323.443 1273.62 322.446 1274.19 321.696 1275.16 321.195 1276.14 320.692 1277.34 320.556 1278.76 320.784ZM1282.16 302.306C1282.9 302.424 1283.59 302.673 1284.23 303.054 1284.88 303.435 1285.42 303.894 1285.87 304.435 1286.33 304.975 1286.66 305.577 1286.88 306.239 1287.1 306.902 1287.15 307.561 1287.04 308.216 1286.85 309.441 1286.24 310.331 1285.23 310.885 1284.22 311.44 1282.95 311.594 1281.41 311.347 1280.58 311.214 1279.82 310.968 1279.14 310.61 1278.46 310.251 1277.88 309.809 1277.43 309.284 1276.97 308.757 1276.63 308.169 1276.41 307.521 1276.2 306.873 1276.15 306.192 1276.26 305.481 1276.45 304.284 1277.08 303.391 1278.15 302.804 1279.23 302.216 1280.57 302.05 1282.16 302.306Z" fill="#FFFFFF" fill-rule="evenodd" transform="matrix(1 0 0 1.0016 -429.298 -181.002)"/><path d="M1317.57 339.708C1316.45 339.321 1315.25 339.089 1313.97 339.011 1312.68 338.933 1311.47 338.995 1310.33 339.197 1309.19 339.399 1308.22 339.717 1307.39 340.15 1306.56 340.584 1306.05 341.115 1305.83 341.741 1305.61 342.368 1305.89 342.814 1306.66 343.078 1307.12 343.239 1307.89 343.443 1308.96 343.693 1310.03 343.941 1311.22 344.208 1312.53 344.49 1313.84 344.775 1315.16 345.042 1316.52 345.294 1317.85 345.546 1319.04 345.755 1320.05 345.922 1320.49 345.982 1320.91 345.905 1321.32 345.695 1321.72 345.486 1322.01 345.149 1322.16 344.686 1322.31 344.277 1322.29 343.843 1322.12 343.384 1321.94 342.926 1321.64 342.465 1321.22 342 1320.81 341.534 1320.28 341.102 1319.65 340.702 1319.03 340.303 1318.33 339.971 1317.57 339.708ZM1320.79 332.393C1322.8 333.09 1324.59 334.036 1326.14 335.23 1327.7 336.424 1328.96 337.765 1329.9 339.254 1330.86 340.743 1331.46 342.312 1331.74 343.962 1332 345.613 1331.86 347.242 1331.31 348.85 1330.92 349.969 1330.35 350.916 1329.59 351.693 1328.84 352.469 1327.93 353.064 1326.87 353.476 1325.81 353.889 1324.62 354.113 1323.32 354.149 1322.01 354.185 1320.6 354.017 1319.07 353.645L1304.38 350.171C1303.84 349.983 1303.35 349.965 1302.92 350.12 1302.47 350.275 1302.18 350.584 1302.02 351.048 1301.78 351.757 1301.81 352.531 1302.11 353.37 1302.42 354.208 1302.92 355.032 1303.64 355.843 1304.35 356.654 1305.24 357.409 1306.29 358.11 1307.34 358.811 1308.48 359.373 1309.71 359.796 1310.88 360.202 1312.13 360.504 1313.45 360.7 1314.77 360.897 1316.12 360.987 1317.49 360.97 1318.84 360.953 1320.2 360.836 1321.57 360.618 1322.93 360.4 1324.24 360.07 1325.52 359.628 1326.55 359.22 1327.45 359.147 1328.21 359.41 1328.64 359.562 1329.01 359.807 1329.28 360.148 1329.57 360.489 1329.84 360.967 1330.12 361.581 1330.31 362.35 1330.43 362.962 1330.46 363.419 1330.5 363.876 1330.46 364.295 1330.33 364.676 1330.04 365.494 1329.37 366.131 1328.29 366.584 1326.61 367.223 1324.85 367.707 1323.03 368.039 1321.2 368.37 1319.36 368.548 1317.49 368.574 1315.62 368.599 1313.74 368.462 1311.86 368.163 1309.98 367.864 1308.16 367.413 1306.42 366.809 1304.21 366.046 1302.24 365.05 1300.49 363.822 1298.75 362.594 1297.29 361.201 1296.15 359.641 1294.99 358.082 1294.14 356.393 1293.61 354.576 1293.07 352.759 1292.91 350.862 1293.11 348.884 1293.12 348.036 1293.07 347.46 1292.95 347.157 1292.82 346.855 1292.52 346.624 1292.07 346.463 1291.06 346.115 1290.36 345.601 1289.98 344.921 1289.62 344.242 1289.59 343.439 1289.9 342.511 1290.04 342.13 1290.15 341.893 1290.24 341.803L1290.61 341.014C1291.08 340.079 1291.59 339.462 1292.14 339.162 1292.68 338.862 1293.38 338.859 1294.23 339.15L1294.84 339.363C1295.98 339.758 1296.97 339.505 1297.81 338.601 1299.3 337.012 1300.97 335.666 1302.81 334.564 1304.67 333.462 1306.59 332.641 1308.62 332.102 1310.63 331.562 1312.68 331.309 1314.76 331.341 1316.85 331.373 1318.84 331.724 1320.79 332.393Z" fill="#FFFFFF" fill-rule="evenodd" transform="matrix(1 0 0 1.0016 -429.298 -181.002)"/><path d="M1372.69 351.302C1373.65 351.883 1374.58 352.559 1375.46 353.329 1376.34 354.099 1377.07 354.895 1377.66 355.718 1378.23 356.542 1378.62 357.35 1378.82 358.142 1379.01 358.934 1378.92 359.64 1378.56 360.257 1378.29 360.701 1377.88 361.17 1377.33 361.663 1376.78 362.156 1376.18 362.591 1375.55 362.968 1374.92 363.344 1374.29 363.608 1373.68 363.759 1373.07 363.91 1372.56 363.867 1372.16 363.629 1371.72 363.36 1371.37 362.97 1371.11 362.456 1370.84 361.943 1370.56 361.393 1370.26 360.805 1369.95 360.218 1369.61 359.635 1369.24 359.055 1368.86 358.474 1368.35 357.983 1367.68 357.58 1366.76 357.028 1365.82 356.784 1364.84 356.847 1363.86 356.911 1362.86 357.219 1361.85 357.773 1360.84 358.327 1359.83 359.081 1358.81 360.035 1357.8 360.99 1356.78 362.086 1355.77 363.325 1354.74 364.564 1353.75 365.901 1352.79 367.339 1351.81 368.776 1350.87 370.248 1349.96 371.754 1348.77 373.73 1347.67 375.723 1346.68 377.734 1345.68 379.744 1344.69 381.565 1343.71 383.195 1343.06 384.257 1342.17 384.851 1341.01 384.979 1339.86 385.107 1338.54 384.73 1337.09 383.85 1336.82 383.686 1336.53 383.474 1336.21 383.216 1335.89 382.957 1335.63 382.661 1335.41 382.326 1335.19 381.992 1335.04 381.624 1334.96 381.222 1334.88 380.821 1334.97 380.391 1335.21 379.932 1336.31 377.625 1337.32 375.208 1338.28 372.682 1339.23 370.157 1340.08 367.573 1340.81 364.933 1341.54 362.293 1342.15 359.597 1342.62 356.844 1343.08 354.092 1343.39 351.311 1343.53 348.501 1343.56 348.011 1343.6 347.564 1343.66 347.161 1343.72 346.758 1343.84 346.409 1344.02 346.112 1344.24 345.742 1344.65 345.441 1345.25 345.21 1345.83 344.979 1346.5 344.832 1347.23 344.767 1347.96 344.703 1348.7 344.736 1349.45 344.867 1350.19 344.998 1350.85 345.235 1351.42 345.579 1352.35 346.146 1352.79 347.294 1352.72 349.024 1352.66 350.752 1352.07 353.224 1350.98 356.436 1350.8 357.005 1350.69 357.41 1350.65 357.653 1350.59 357.895 1350.64 358.054 1350.76 358.128 1351.03 358.292 1351.46 357.977 1352.04 357.183 1353.76 355.015 1355.48 353.303 1357.22 352.043 1358.96 350.784 1360.7 349.93 1362.43 349.48 1364.18 349.03 1365.9 348.968 1367.61 349.292 1369.31 349.617 1371.01 350.286 1372.69 351.302Z" fill="#FFFFFF" fill-rule="evenodd" transform="matrix(1 0 0 1.0016 -429.298 -181.002)"/><path d="M1399.27 399.622C1399.14 399.466 1399.04 399.382 1398.96 399.375L1398.54 399.269C1397.98 399.17 1397.41 399.178 1396.83 399.293 1396.26 399.408 1395.7 399.586 1395.15 399.827 1394.6 400.067 1394.07 400.356 1393.57 400.694 1393.06 401.031 1392.6 401.373 1392.17 401.719 1390.96 402.701 1390.14 403.837 1389.73 405.126 1389.3 406.415 1389.18 407.753 1389.32 409.131 1389.48 410.513 1389.87 411.879 1390.49 413.237 1391.1 414.595 1391.86 415.819 1392.75 416.915 1393.84 418.261 1394.97 419.393 1396.13 420.312 1397.28 421.23 1398.41 421.899 1399.52 422.322 1400.62 422.745 1401.68 422.906 1402.69 422.805 1403.71 422.705 1404.65 422.31 1405.5 421.617 1406.19 421.053 1406.79 420.267 1407.3 419.265 1407.8 418.261 1408.15 417.04 1408.36 415.605 1408.43 415.038 1408.45 414.502 1408.45 413.998 1408.45 413.499 1408.43 413.007 1408.37 412.531 1408.35 412.137 1408.28 411.819 1408.15 411.568 1408.02 411.319 1407.86 411.073 1407.65 410.827 1407.56 410.715 1407.47 410.597 1407.37 410.473 1407.27 410.348 1407.14 410.239 1406.99 410.142 1406.29 409.555 1405.65 408.942 1405.04 408.293 1404.45 407.648 1403.88 407 1403.35 406.351 1402.01 404.695 1400.91 402.91 1400.06 400.995 1399.76 400.349 1399.49 399.891 1399.27 399.622ZM1414.63 393.947C1414.23 393.454 1413.79 392.957 1413.3 392.456 1412.83 391.955 1412.33 391.546 1411.84 391.228 1411.33 390.908 1410.82 390.722 1410.3 390.668 1409.76 390.613 1409.25 390.786 1408.76 391.187 1408.41 391.478 1408.1 391.852 1407.87 392.31 1407.62 392.766 1407.46 393.34 1407.39 394.029 1407.24 394.856 1407.41 395.56 1407.88 396.142 1407.98 396.254 1408.06 396.361 1408.14 396.46 1408.22 396.561 1408.35 396.672 1408.53 396.792 1409.09 397.221 1409.66 397.71 1410.21 398.26 1410.77 398.81 1411.3 399.376 1411.76 399.957 1412.87 401.324 1413.81 402.742 1414.55 404.215 1415.06 405.331 1415.4 406.005 1415.58 406.226 1415.69 406.363 1415.81 406.375 1415.95 406.267 1416.93 405.464 1417.53 404.513 1417.74 403.406 1417.96 402.3 1417.94 401.17 1417.67 400.013 1417.39 398.858 1416.97 397.743 1416.39 396.667 1415.82 395.592 1415.23 394.686 1414.63 393.947ZM1421.68 390.397C1422.99 392.01 1424.08 393.789 1424.95 395.736 1425.83 397.682 1426.35 399.645 1426.53 401.621 1426.7 403.599 1426.47 405.501 1425.85 407.334 1425.22 409.168 1424.05 410.775 1422.36 412.157 1421.43 412.902 1420.38 413.442 1419.2 413.772 1418.94 413.869 1418.71 413.945 1418.53 414.011 1418.34 414.07 1418.16 414.176 1417.97 414.321 1417.48 414.72 1417.24 415.312 1417.24 416.09 1417.02 418.386 1416.41 420.526 1415.42 422.504 1414.42 424.482 1413.08 426.154 1411.41 427.519 1409.35 429.192 1407.18 430.175 1404.9 430.461 1402.63 430.751 1400.38 430.546 1398.15 429.844 1395.93 429.14 1393.8 428.039 1391.76 426.537 1389.72 425.034 1387.92 423.317 1386.35 421.396 1385.39 420.207 1384.51 418.91 1383.73 417.507 1382.94 416.102 1382.29 414.642 1381.77 413.12 1381.27 411.601 1380.92 410.058 1380.75 408.494 1380.57 406.927 1380.63 405.392 1380.91 403.893 1381.21 402.397 1381.74 400.955 1382.53 399.569 1383.32 398.185 1384.42 396.919 1385.83 395.773 1387.29 394.59 1388.94 393.657 1390.78 392.976 1392.62 392.295 1394.51 391.911 1396.45 391.824 1397.18 391.858 1397.75 391.712 1398.15 391.384 1398.47 391.129 1398.74 390.706 1398.97 390.114 1399.52 388.879 1400.06 387.934 1400.57 387.28 1401.07 386.625 1401.61 386.069 1402.17 385.614 1403.89 384.213 1405.64 383.378 1407.41 383.11 1409.19 382.842 1410.91 382.989 1412.6 383.553 1414.29 384.117 1415.9 385.006 1417.44 386.222 1418.99 387.438 1420.4 388.829 1421.68 390.397Z" fill="#FFFFFF" fill-rule="evenodd" transform="matrix(1 0 0 1.0016 -429.298 -181.002)"/><path d="M986.109 532.239C986.109 387.713 1103.28 270.552 1247.8 270.552 1392.33 270.552 1509.49 387.713 1509.49 532.239 1509.49 676.765 1392.33 793.927 1247.8 793.927 1103.28 793.927 986.109 676.765 986.109 532.239Z" stroke="#FFFFFF" stroke-width="3.6933" stroke-miterlimit="8" fill="none" fill-rule="evenodd" transform="matrix(1 0 0 1.0016 -429.298 -181.002)"/><text fill="#FFFFFF" font-family="Mistral,Mistral_MSFontService,sans-serif" font-weight="400" font-size="147" transform="matrix(0.402905 0 0 0.403549 706.259 325)">N</text><text fill="#FFFFFF" font-family="Mistral,Mistral_MSFontService,sans-serif" font-weight="400" font-size="147" transform="matrix(0.402905 0 0 0.403549 737.231 325)">47</text><text fill="#FFFFFF" font-family="Aptos,Aptos_MSFontService,sans-serif" font-weight="400" font-size="147" transform="matrix(0.402905 0 0 0.403549 781.046 325)"></text><text fill="#FFFFFF" font-family="Mistral,Mistral_MSFontService,sans-serif" font-weight="400" font-size="147" transform="matrix(0.402905 0 0 0.403549 802.747 325)">42</text><text fill="#FFFFFF" font-family="Mistral,Mistral_MSFontService,sans-serif" font-weight="400" font-size="147" transform="matrix(0.402905 0 0 0.403549 849.625 325)"></text><text fill="#FFFFFF" font-family="Mistral,Mistral_MSFontService,sans-serif" font-weight="400" font-size="147" transform="matrix(0.402905 0 0 0.403549 861.916 325)">57</text><text fill="#FFFFFF" font-family="Mistral,Mistral_MSFontService,sans-serif" font-weight="400" font-size="147" transform="matrix(0.402905 0 0 0.403549 906.25 325)"></text><text fill="#FFFFFF" font-family="Mistral,Mistral_MSFontService,sans-serif" font-weight="400" font-size="147" transform="matrix(0.402905 0 0 0.403549 714.917 416)">O</text><text fill="#FFFFFF" font-family="Mistral,Mistral_MSFontService,sans-serif" font-weight="400" font-size="147" transform="matrix(0.402905 0 0 0.403549 746.324 416)">8</text><text fill="#FFFFFF" font-family="Aptos,Aptos_MSFontService,sans-serif" font-weight="400" font-size="147" transform="matrix(0.402905 0 0 0.403549 772.625 416)"></text><text fill="#FFFFFF" font-family="Mistral,Mistral_MSFontService,sans-serif" font-weight="400" font-size="147" transform="matrix(0.402905 0 0 0.403549 794.326 416)">57</text><text fill="#FFFFFF" font-family="Mistral,Mistral_MSFontService,sans-serif" font-weight="400" font-size="147" transform="matrix(0.402905 0 0 0.403549 838.659 416)"></text><text fill="#FFFFFF" font-family="Mistral,Mistral_MSFontService,sans-serif" font-weight="400" font-size="147" transform="matrix(0.402905 0 0 0.403549 850.95 416)">15</text><text fill="#FFFFFF" font-family="Mistral,Mistral_MSFontService,sans-serif" font-weight="400" font-size="147" transform="matrix(0.402905 0 0 0.403549 897.568 416)"></text></g></svg>